<svg width="43" height="40" viewBox="0 0 43 40" fill="none" xmlns="http://www.w3.org/2000/svg">
<path d="M8.52 17.2362C4.30562 17.2362 0.875 20.6599 0.875 24.8743C0.875 28.8824 7.66062 38.9062 7.94938 39.3324C8.01178 39.4256 8.09618 39.502 8.1951 39.5548C8.29402 39.6076 8.40443 39.6352 8.51656 39.6352C8.6287 39.6352 8.7391 39.6076 8.83802 39.5548C8.93695 39.502 9.02134 39.4256 9.08375 39.3324C9.3725 38.9062 16.1581 28.8824 16.1581 24.8743C16.1581 20.6599 12.7275 17.2362 8.52 17.2362ZM4.11313 24.8743C4.11313 22.4474 6.08625 20.4743 8.52 20.4743C10.9537 20.4743 12.92 22.4474 12.92 24.8743C12.92 27.3012 10.9469 29.2812 8.52 29.2812C6.09312 29.2812 4.11313 27.3012 4.11313 24.8743ZM35.855 0.364945C32.4038 0.364945 29.5919 3.17682 29.5919 6.63495C29.5919 9.43857 33.5202 15.6281 34.8836 17.7003H34.4827C34.3004 17.7003 34.1255 17.7727 33.9966 17.9016C33.8677 18.0306 33.7952 18.2054 33.7952 18.3878C33.7952 18.5701 33.8677 18.745 33.9966 18.8739C34.1255 19.0028 34.3004 19.0753 34.4827 19.0753H35.8577C36.0401 19.0753 36.215 19.0028 36.3439 18.8739C36.4728 18.745 36.5452 18.5701 36.5452 18.3878C36.5452 18.319 36.5246 18.2564 36.5061 18.1939L36.5081 18.1911C37.3744 16.9055 42.125 9.71426 42.125 6.63426C42.125 3.17613 39.3131 0.364258 35.855 0.364258V0.364945ZM35.855 10.2993C33.8338 10.2993 32.1906 8.6562 32.1906 6.63495C32.1906 4.6137 33.8338 2.9637 35.855 2.9637C37.8763 2.9637 39.5263 4.6137 39.5263 6.63495C39.5263 8.6562 37.8831 10.2993 35.855 10.2993ZM31.8125 17.7037H29.145C28.76 17.7037 28.4575 18.0062 28.4575 18.3912C28.4575 18.7693 28.76 19.0787 29.145 19.0787H31.8125C32.1906 19.0787 32.5 18.7693 32.5 18.3912C32.5 18.0062 32.1906 17.7037 31.8125 17.7037ZM25.35 38.2599C24.9719 38.2599 24.6625 38.5693 24.6625 38.9474C24.6625 39.3256 24.9719 39.6349 25.35 39.6349H28.0175C28.4025 39.6349 28.705 39.3256 28.705 38.9474C28.705 38.5693 28.4025 38.2599 28.0175 38.2599H25.35ZM20.895 18.6799C20.0631 19.3399 19.4856 20.2612 19.2587 21.2924C19.1763 21.6637 19.41 22.0281 19.7812 22.1106C19.8294 22.1174 19.8775 22.1243 19.9256 22.1243C20.2419 22.1243 20.5306 21.9043 20.5994 21.5881C20.7575 20.8662 21.1631 20.2199 21.7475 19.7593C21.8902 19.6469 21.9826 19.4825 22.0045 19.3022C22.0264 19.1218 21.976 18.9401 21.8644 18.7968C21.6237 18.5012 21.1975 18.4462 20.895 18.6799ZM30.0044 38.9474C30.0044 39.3256 30.3137 39.6349 30.6919 39.6349H33.3594C33.7375 39.6349 34.0469 39.3256 34.0469 38.9474C34.0469 38.5693 33.7375 38.2599 33.3594 38.2599H30.6919C30.3137 38.2599 30.0044 38.5693 30.0044 38.9474ZM20.0081 38.2599C19.63 38.2599 19.3206 38.5693 19.3206 38.9474C19.3206 39.3256 19.63 39.6349 20.0081 39.6349H22.6825C23.0606 39.6349 23.37 39.3256 23.37 38.9474C23.37 38.5693 23.0606 38.2599 22.6825 38.2599H20.0081ZM32.7819 25.4862H30.1144C29.7362 25.4862 29.4269 25.7887 29.4269 26.1737C29.4269 26.5518 29.7362 26.8612 30.1144 26.8612H32.7819C33.16 26.8612 33.4694 26.5518 33.4694 26.1737C33.4694 25.7887 33.16 25.4862 32.7819 25.4862ZM27.4469 25.4862H24.7725C24.3944 25.4862 24.085 25.7887 24.085 26.1737C24.085 26.5518 24.3944 26.8612 24.7725 26.8612H27.4469C27.825 26.8612 28.1344 26.5518 28.1344 26.1737C28.1344 25.7887 27.825 25.4862 27.4469 25.4862ZM26.4706 17.7037H23.8031C23.425 17.7037 23.1156 18.0062 23.1156 18.3912C23.1156 18.7693 23.425 19.0787 23.8031 19.0787H26.4706C26.8556 19.0787 27.1581 18.7693 27.1581 18.3912C27.1581 18.0062 26.8556 17.7037 26.4706 17.7037ZM22.4281 25.2112C21.7544 24.9087 21.1975 24.3862 20.8675 23.7262C20.8274 23.6454 20.7716 23.5733 20.7034 23.5143C20.6352 23.4552 20.5559 23.4103 20.4702 23.3822C20.3845 23.354 20.294 23.3432 20.204 23.3503C20.1141 23.3574 20.0265 23.3824 19.9462 23.4237C19.6025 23.5956 19.4719 24.0081 19.6369 24.3449C20.1181 25.2868 20.9088 26.0431 21.8713 26.4693C21.9606 26.5106 22.0569 26.5243 22.1462 26.5243C22.4144 26.5243 22.6619 26.3731 22.7788 26.1187C22.8154 26.0361 22.8354 25.9471 22.8376 25.8568C22.8397 25.7664 22.8241 25.6765 22.7916 25.5923C22.759 25.508 22.7101 25.4309 22.6478 25.3656C22.5854 25.3002 22.5108 25.2477 22.4281 25.2112ZM40.585 28.1537C40.5297 28.0801 40.4601 28.0183 40.3805 27.9721C40.3009 27.9258 40.2127 27.8961 40.1214 27.8845C40.03 27.873 39.9373 27.88 39.8486 27.905C39.76 27.93 39.6773 27.9725 39.6054 28.0301C39.5336 28.0877 39.474 28.1591 39.4303 28.2402C39.3865 28.3212 39.3595 28.4102 39.3509 28.5019C39.3422 28.5936 39.3521 28.6861 39.3798 28.7739C39.4076 28.8617 39.4527 28.943 39.5125 29.0131C40.0144 29.6387 40.365 30.3537 40.5713 31.1237C40.593 31.211 40.6318 31.2932 40.6855 31.3655C40.7392 31.4377 40.8066 31.4986 40.884 31.5446C40.9613 31.5906 41.047 31.6209 41.1361 31.6336C41.2253 31.6463 41.316 31.6413 41.4031 31.6187C41.7744 31.5224 41.9944 31.1512 41.8981 30.7799C41.6506 29.8174 41.2106 28.9374 40.585 28.1537ZM38.1306 37.3524C37.4648 37.7893 36.7116 38.0755 35.9237 38.1912C35.5456 38.2531 35.2912 38.6037 35.3462 38.9749C35.4012 39.3187 35.69 39.5593 36.0269 39.5593C36.0613 39.5593 36.0956 39.5593 36.13 39.5524C37.1131 39.4012 38.0413 39.0506 38.8731 38.5143C39.1963 38.3081 39.2856 37.8818 39.0794 37.5587C38.8731 37.2424 38.4538 37.1531 38.1306 37.3524ZM40.6744 33.4887C40.5463 34.2744 40.2534 35.0242 39.815 35.6887C39.6019 36.0049 39.6912 36.4312 40.0075 36.6443C40.1244 36.7199 40.255 36.7543 40.3856 36.7543C40.6125 36.7543 40.8325 36.6443 40.9631 36.4449C41.5131 35.6131 41.8706 34.6918 42.0288 33.7156C42.0588 33.536 42.0163 33.3518 41.9106 33.2035C41.8048 33.0553 41.6446 32.9551 41.465 32.9249C41.376 32.9093 41.2848 32.9116 41.1966 32.9315C41.1085 32.9515 41.0252 32.9888 40.9516 33.0413C40.8781 33.0937 40.8157 33.1603 40.7681 33.2371C40.7205 33.3139 40.6886 33.3995 40.6744 33.4887ZM13.9787 38.9474C13.9787 39.3256 14.2881 39.6349 14.6662 39.6349H17.3406C17.7188 39.6349 18.0281 39.3256 18.0281 38.9474C18.0281 38.5693 17.7188 38.2599 17.3406 38.2599H14.6662C14.2881 38.2599 13.9787 38.5693 13.9787 38.9474ZM38.3231 26.2837C37.4431 25.8231 36.4944 25.5618 35.4975 25.4999C35.1263 25.4862 34.7894 25.7612 34.7687 26.1393C34.7412 26.5243 35.03 26.8474 35.4081 26.8681C36.2125 26.9231 36.9756 27.1362 37.6906 27.5074C37.8532 27.5894 38.0415 27.6044 38.215 27.5491C38.3886 27.4939 38.5335 27.3728 38.6188 27.2118C38.7906 26.8749 38.66 26.4624 38.3231 26.2837ZM10.5887 38.2593C10.4064 38.2593 10.2315 38.3317 10.1026 38.4606C9.97362 38.5896 9.90119 38.7644 9.90119 38.9468C9.90119 39.1291 9.97362 39.304 10.1026 39.4329C10.2315 39.5618 10.4064 39.6343 10.5887 39.6343H11.9637C12.146 39.6343 12.3209 39.5618 12.4498 39.4329C12.5788 39.304 12.6512 39.1291 12.6512 38.9468C12.6512 38.7644 12.5788 38.5896 12.4498 38.4606C12.3209 38.3317 12.146 38.2593 11.9637 38.2593H10.5887Z" fill="white"/>
</svg>
