<svg width="45" height="44" viewBox="0 0 45 44" fill="none" xmlns="http://www.w3.org/2000/svg">
<path d="M9.52 19.2362C5.30562 19.2362 1.875 22.6599 1.875 26.8743C1.875 30.8824 8.66062 40.9062 8.94938 41.3324C9.01178 41.4256 9.09618 41.502 9.1951 41.5548C9.29402 41.6076 9.40443 41.6352 9.51656 41.6352C9.6287 41.6352 9.7391 41.6076 9.83802 41.5548C9.93695 41.502 10.0213 41.4256 10.0837 41.3324C10.3725 40.9062 17.1581 30.8824 17.1581 26.8743C17.1581 22.6599 13.7275 19.2362 9.52 19.2362ZM5.11313 26.8743C5.11313 24.4474 7.08625 22.4743 9.52 22.4743C11.9537 22.4743 13.92 24.4474 13.92 26.8743C13.92 29.3012 11.9469 31.2812 9.52 31.2812C7.09312 31.2812 5.11313 29.3012 5.11313 26.8743ZM36.855 2.36495C33.4038 2.36495 30.5919 5.17682 30.5919 8.63495C30.5919 11.4386 34.5202 17.6281 35.8836 19.7003H35.4827C35.3004 19.7003 35.1255 19.7727 34.9966 19.9016C34.8677 20.0306 34.7952 20.2054 34.7952 20.3878C34.7952 20.5701 34.8677 20.745 34.9966 20.8739C35.1255 21.0028 35.3004 21.0753 35.4827 21.0753H36.8577C37.0401 21.0753 37.215 21.0028 37.3439 20.8739C37.4728 20.745 37.5452 20.5701 37.5452 20.3878C37.5452 20.319 37.5246 20.2564 37.5061 20.1939L37.5081 20.1911C38.3744 18.9055 43.125 11.7143 43.125 8.63426C43.125 5.17613 40.3131 2.36426 36.855 2.36426V2.36495ZM36.855 12.2993C34.8338 12.2993 33.1906 10.6562 33.1906 8.63495C33.1906 6.6137 34.8338 4.9637 36.855 4.9637C38.8763 4.9637 40.5263 6.6137 40.5263 8.63495C40.5263 10.6562 38.8831 12.2993 36.855 12.2993ZM32.8125 19.7037H30.145C29.76 19.7037 29.4575 20.0062 29.4575 20.3912C29.4575 20.7693 29.76 21.0787 30.145 21.0787H32.8125C33.1906 21.0787 33.5 20.7693 33.5 20.3912C33.5 20.0062 33.1906 19.7037 32.8125 19.7037ZM26.35 40.2599C25.9719 40.2599 25.6625 40.5693 25.6625 40.9474C25.6625 41.3256 25.9719 41.6349 26.35 41.6349H29.0175C29.4025 41.6349 29.705 41.3256 29.705 40.9474C29.705 40.5693 29.4025 40.2599 29.0175 40.2599H26.35ZM21.895 20.6799C21.0631 21.3399 20.4856 22.2612 20.2587 23.2924C20.1763 23.6637 20.41 24.0281 20.7812 24.1106C20.8294 24.1174 20.8775 24.1243 20.9256 24.1243C21.2419 24.1243 21.5306 23.9043 21.5994 23.5881C21.7575 22.8662 22.1631 22.2199 22.7475 21.7593C22.8902 21.6469 22.9826 21.4825 23.0045 21.3022C23.0264 21.1218 22.976 20.9401 22.8644 20.7968C22.6237 20.5012 22.1975 20.4462 21.895 20.6799ZM31.0044 40.9474C31.0044 41.3256 31.3137 41.6349 31.6919 41.6349H34.3594C34.7375 41.6349 35.0469 41.3256 35.0469 40.9474C35.0469 40.5693 34.7375 40.2599 34.3594 40.2599H31.6919C31.3137 40.2599 31.0044 40.5693 31.0044 40.9474ZM21.0081 40.2599C20.63 40.2599 20.3206 40.5693 20.3206 40.9474C20.3206 41.3256 20.63 41.6349 21.0081 41.6349H23.6825C24.0606 41.6349 24.37 41.3256 24.37 40.9474C24.37 40.5693 24.0606 40.2599 23.6825 40.2599H21.0081ZM33.7819 27.4862H31.1144C30.7362 27.4862 30.4269 27.7887 30.4269 28.1737C30.4269 28.5518 30.7362 28.8612 31.1144 28.8612H33.7819C34.16 28.8612 34.4694 28.5518 34.4694 28.1737C34.4694 27.7887 34.16 27.4862 33.7819 27.4862ZM28.4469 27.4862H25.7725C25.3944 27.4862 25.085 27.7887 25.085 28.1737C25.085 28.5518 25.3944 28.8612 25.7725 28.8612H28.4469C28.825 28.8612 29.1344 28.5518 29.1344 28.1737C29.1344 27.7887 28.825 27.4862 28.4469 27.4862ZM27.4706 19.7037H24.8031C24.425 19.7037 24.1156 20.0062 24.1156 20.3912C24.1156 20.7693 24.425 21.0787 24.8031 21.0787H27.4706C27.8556 21.0787 28.1581 20.7693 28.1581 20.3912C28.1581 20.0062 27.8556 19.7037 27.4706 19.7037ZM23.4281 27.2112C22.7544 26.9087 22.1975 26.3862 21.8675 25.7262C21.8274 25.6454 21.7716 25.5733 21.7034 25.5143C21.6352 25.4552 21.5559 25.4103 21.4702 25.3822C21.3845 25.354 21.294 25.3432 21.204 25.3503C21.1141 25.3574 21.0265 25.3824 20.9462 25.4237C20.6025 25.5956 20.4719 26.0081 20.6369 26.3449C21.1181 27.2868 21.9088 28.0431 22.8713 28.4693C22.9606 28.5106 23.0569 28.5243 23.1462 28.5243C23.4144 28.5243 23.6619 28.3731 23.7788 28.1187C23.8154 28.0361 23.8354 27.9471 23.8376 27.8568C23.8397 27.7664 23.8241 27.6765 23.7916 27.5923C23.759 27.508 23.7101 27.4309 23.6478 27.3656C23.5854 27.3002 23.5108 27.2477 23.4281 27.2112ZM41.585 30.1537C41.5297 30.0801 41.4601 30.0183 41.3805 29.9721C41.3009 29.9258 41.2127 29.8961 41.1214 29.8845C41.03 29.873 40.9373 29.88 40.8486 29.905C40.76 29.93 40.6773 29.9725 40.6054 30.0301C40.5336 30.0877 40.474 30.1591 40.4303 30.2402C40.3865 30.3212 40.3595 30.4102 40.3509 30.5019C40.3422 30.5936 40.3521 30.6861 40.3798 30.7739C40.4076 30.8617 40.4527 30.943 40.5125 31.0131C41.0144 31.6387 41.365 32.3537 41.5713 33.1237C41.593 33.211 41.6318 33.2932 41.6855 33.3655C41.7392 33.4377 41.8066 33.4986 41.884 33.5446C41.9613 33.5906 42.047 33.6209 42.1361 33.6336C42.2253 33.6463 42.316 33.6413 42.4031 33.6187C42.7744 33.5224 42.9944 33.1512 42.8981 32.7799C42.6506 31.8174 42.2106 30.9374 41.585 30.1537ZM39.1306 39.3524C38.4648 39.7893 37.7116 40.0755 36.9237 40.1912C36.5456 40.2531 36.2912 40.6037 36.3462 40.9749C36.4012 41.3187 36.69 41.5593 37.0269 41.5593C37.0613 41.5593 37.0956 41.5593 37.13 41.5524C38.1131 41.4012 39.0413 41.0506 39.8731 40.5143C40.1963 40.3081 40.2856 39.8818 40.0794 39.5587C39.8731 39.2424 39.4538 39.1531 39.1306 39.3524ZM41.6744 35.4887C41.5463 36.2744 41.2534 37.0242 40.815 37.6887C40.6019 38.0049 40.6912 38.4312 41.0075 38.6443C41.1244 38.7199 41.255 38.7543 41.3856 38.7543C41.6125 38.7543 41.8325 38.6443 41.9631 38.4449C42.5131 37.6131 42.8706 36.6918 43.0288 35.7156C43.0588 35.536 43.0163 35.3518 42.9106 35.2035C42.8048 35.0553 42.6446 34.9551 42.465 34.9249C42.376 34.9093 42.2848 34.9116 42.1966 34.9315C42.1085 34.9515 42.0252 34.9888 41.9516 35.0413C41.8781 35.0937 41.8157 35.1603 41.7681 35.2371C41.7205 35.3139 41.6886 35.3995 41.6744 35.4887ZM14.9787 40.9474C14.9787 41.3256 15.2881 41.6349 15.6662 41.6349H18.3406C18.7188 41.6349 19.0281 41.3256 19.0281 40.9474C19.0281 40.5693 18.7188 40.2599 18.3406 40.2599H15.6662C15.2881 40.2599 14.9787 40.5693 14.9787 40.9474ZM39.3231 28.2837C38.4431 27.8231 37.4944 27.5618 36.4975 27.4999C36.1263 27.4862 35.7894 27.7612 35.7687 28.1393C35.7412 28.5243 36.03 28.8474 36.4081 28.8681C37.2125 28.9231 37.9756 29.1362 38.6906 29.5074C38.8532 29.5894 39.0415 29.6044 39.215 29.5491C39.3886 29.4939 39.5335 29.3728 39.6188 29.2118C39.7906 28.8749 39.66 28.4624 39.3231 28.2837ZM11.5887 40.2593C11.4064 40.2593 11.2315 40.3317 11.1026 40.4606C10.9736 40.5896 10.9012 40.7644 10.9012 40.9468C10.9012 41.1291 10.9736 41.304 11.1026 41.4329C11.2315 41.5618 11.4064 41.6343 11.5887 41.6343H12.9637C13.146 41.6343 13.3209 41.5618 13.4498 41.4329C13.5788 41.304 13.6512 41.1291 13.6512 40.9468C13.6512 40.7644 13.5788 40.5896 13.4498 40.4606C13.3209 40.3317 13.146 40.2593 12.9637 40.2593H11.5887Z" fill="url(#paint0_linear_551_2228)"/>
<defs>
<linearGradient id="paint0_linear_551_2228" x1="1.875" y1="20.6907" x2="49.2018" y2="20.8512" gradientUnits="userSpaceOnUse">
<stop stop-color="#EFB639"/>
<stop offset="1" stop-color="#C59325"/>
</linearGradient>
</defs>
</svg>
